<svg xmlns="http://www.w3.org/2000/svg" xmlns:xlink="http://www.w3.org/1999/xlink" width="2048" zoomAndPan="magnify" viewBox="0 0 1536 541.499989" height="722" preserveAspectRatio="xMidYMid meet" version="1.0"><defs><clipPath id="ee96c169a4"><path d="M 0.707031 300 L 1535.289062 300 L 1535.289062 541 L 0.707031 541 Z M 0.707031 300 " clip-rule="nonzero"/></clipPath></defs><g clip-path="url(#ee96c169a4)"><path fill="#ffffff" d="M -28.140625 300.519531 L -28.140625 673.5625 L 1562.042969 673.5625 L 1562.042969 515.320312 C 1562.042969 511.851562 1563.308594 505.230469 1561.390625 502.222656 C 1558.125 497.113281 1545.816406 494.042969 1540.417969 491.609375 C 1520.71875 482.738281 1500.464844 475.746094 1479.992188 468.929688 C 1393.128906 440 1300.96875 427.152344 1209.660156 433.398438 C 1058.523438 443.738281 910.101562 479.527344 759.957031 499.253906 C 622.238281 517.347656 484.304688 516.421875 347.144531 493.765625 C 274.609375 481.785156 200.542969 465.203125 133.421875 434.414062 C 92.167969 415.488281 52.140625 386.675781 20.203125 354.539062 C 9.207031 343.472656 -1.136719 331.398438 -11.332031 319.585938 C -16.648438 313.425781 -21.679688 305.457031 -28.140625 300.519531 Z M -28.140625 300.519531 " fill-opacity="1" fill-rule="nonzero"/></g></svg>